<?xml version="1.0" standalone="no"?>
<!DOCTYPE svg PUBLIC "-//W3C//DTD SVG 20010904//EN"
 "http://www.w3.org/TR/2001/REC-SVG-20010904/DTD/svg10.dtd">
<svg version="1.0" xmlns="http://www.w3.org/2000/svg"
 width="260.000000pt" height="260.000000pt" viewBox="0 0 260.000000 260.000000"
 preserveAspectRatio="xMidYMid meet">
<metadata>
Created by potrace 1.11, written by Peter Selinger 2001-2013
</metadata>
<g transform="translate(0.000000,260.000000) scale(0.100000,-0.100000)"
fill="#000000" stroke="none">
<path d="M700 1904 l0 -694 -152 0 c-303 2 -334 0 -318 -13 8 -7 47 -48 85
-92 94 -107 134 -152 170 -190 17 -18 55 -61 85 -96 30 -35 73 -84 96 -109 22
-25 67 -74 99 -110 32 -36 74 -83 94 -105 20 -22 68 -76 106 -120 39 -44 79
-89 90 -101 20 -20 108 -119 198 -221 l46 -53 34 38 c19 20 60 66 92 102 32
36 72 81 89 100 18 19 88 98 156 175 69 77 137 154 152 170 14 17 35 39 45 51
10 12 50 57 89 100 39 43 110 124 159 179 48 55 93 105 99 110 30 27 145 163
148 174 2 9 -52 12 -229 13 l-233 0 0 695 0 695 -22 -15 c-13 -8 -101 -64
-196 -123 -95 -59 -177 -115 -181 -123 -4 -9 -7 -367 -6 -796 1 -746 0 -781
-17 -804 -11 -14 -51 -61 -91 -104 -40 -44 -75 -84 -78 -89 -5 -8 -72 60 -176
180 l-28 32 0 794 0 794 -103 63 c-56 35 -120 75 -142 89 -21 14 -66 42 -100
62 l-60 37 0 -695z"/>
</g>
</svg>
