<?xml version="1.0" encoding="utf-8"?>
<!-- Generator: Adobe Illustrator 16.0.0, SVG Export Plug-In . SVG Version: 6.00 Build 0)  -->
<!DOCTYPE svg PUBLIC "-//W3C//DTD SVG 1.1//EN" "http://www.w3.org/Graphics/SVG/1.1/DTD/svg11.dtd">
<svg version="1.1" id="Layer_1" xmlns="http://www.w3.org/2000/svg" xmlns:xlink="http://www.w3.org/1999/xlink" x="0px" y="0px"
	 width="208px" height="128px" viewBox="0 0 208 128" enable-background="new 0 0 208 128" xml:space="preserve">
<path fill="none" stroke="#3e8eaf" stroke-width="10" d="M15,5h178c5.523,0,10,4.477,10,10v98c0,5.523-4.477,10-10,10H15
	c-5.523,0-10-4.477-10-10V15C5,9.477,9.477,5,15,5z"/>
<path fill="#3e8eaf" d="M155,98l-30-33h20V30h20v35h20L155,98z"/>
<g>
	<path fill="#3e8eaf" d="M77.256,86.774H53.401L50.086,98H28.632L54.19,30h22.919l25.552,68H80.658L77.256,86.774z M72.897,72.071l-7.506-24.445
		l-7.427,24.445H72.897z"/>
</g>
</svg>
